<?xml version="1.0" encoding="UTF-8" standalone="no"?>
<!-- Generator: Adobe Illustrator 18.0.0, SVG Export Plug-In . SVG Version: 6.00 Build 0)  -->

<svg
   xmlns:dc="http://purl.org/dc/elements/1.1/"
   xmlns:cc="http://creativecommons.org/ns#"
   xmlns:rdf="http://www.w3.org/1999/02/22-rdf-syntax-ns#"
   xmlns:svg="http://www.w3.org/2000/svg"
   xmlns="http://www.w3.org/2000/svg"
   xmlns:sodipodi="http://sodipodi.sourceforge.net/DTD/sodipodi-0.dtd"
   xmlns:inkscape="http://www.inkscape.org/namespaces/inkscape"
   version="1.1"
   id="Capa_1"
   x="0px"
   y="0px"
   viewBox="0 0 455.731 455.731"
   style="enable-background:new 0 0 455.731 455.731;"
   xml:space="preserve"
   sodipodi:docname="telegram.svg"
   inkscape:version="0.92.3 (2405546, 2018-03-11)"><metadata
   id="metadata957"><rdf:RDF><cc:Work
       rdf:about=""><dc:format>image/svg+xml</dc:format><dc:type
         rdf:resource="http://purl.org/dc/dcmitype/StillImage" /></cc:Work></rdf:RDF></metadata><defs
   id="defs955" /><sodipodi:namedview
   pagecolor="#ffffff"
   bordercolor="#666666"
   borderopacity="1"
   objecttolerance="10"
   gridtolerance="10"
   guidetolerance="10"
   inkscape:pageopacity="0"
   inkscape:pageshadow="2"
   inkscape:window-width="2560"
   inkscape:window-height="1052"
   id="namedview953"
   showgrid="false"
   inkscape:zoom="1.3359174"
   inkscape:cx="291.59581"
   inkscape:cy="251.30663"
   inkscape:window-x="0"
   inkscape:window-y="0"
   inkscape:window-maximized="1"
   inkscape:current-layer="Capa_1" />
<g
   id="g920"
   style="fill:#ffffff;fill-opacity:1">
	<path
   d="M316.244,149.903L149.082,253.579c-2.943,1.825-4.282,5.409-3.255,8.717l22.423,72.253   c0.471,1.518,2.683,1.309,2.861-0.271l5.45-48.448c0.21-1.872,1.108-3.599,2.519-4.847l141.556-125.177   C324.025,152.81,320.089,147.518,316.244,149.903z"
   id="path916"
   style="fill:#ffffff;fill-opacity:1" />
	<path
   d="M0,0v455.731h455.731V0H0z M379.882,118.418l-52.031,248.76c-2.442,11.673-16.133,16.916-25.747,9.859l-78.559-57.665   l-40.039,40.881c-7.027,7.175-19.166,4.271-22.185-5.308l-28.901-91.706l-77.441-22.868c-10.16-3-10.759-17.165-0.888-21.012   l304.753-118.759C370.444,96.08,382.431,106.232,379.882,118.418z"
   id="path918"
   style="fill:#ffffff;fill-opacity:1" />
</g>
<g
   id="g922"
   style="fill:#ffffff;fill-opacity:1">
</g>
<g
   id="g924"
   style="fill:#ffffff;fill-opacity:1">
</g>
<g
   id="g926"
   style="fill:#ffffff;fill-opacity:1">
</g>
<g
   id="g928"
   style="fill:#ffffff;fill-opacity:1">
</g>
<g
   id="g930"
   style="fill:#ffffff;fill-opacity:1">
</g>
<g
   id="g932"
   style="fill:#ffffff;fill-opacity:1">
</g>
<g
   id="g934"
   style="fill:#ffffff;fill-opacity:1">
</g>
<g
   id="g936"
   style="fill:#ffffff;fill-opacity:1">
</g>
<g
   id="g938"
   style="fill:#ffffff;fill-opacity:1">
</g>
<g
   id="g940"
   style="fill:#ffffff;fill-opacity:1">
</g>
<g
   id="g942"
   style="fill:#ffffff;fill-opacity:1">
</g>
<g
   id="g944"
   style="fill:#ffffff;fill-opacity:1">
</g>
<g
   id="g946"
   style="fill:#ffffff;fill-opacity:1">
</g>
<g
   id="g948"
   style="fill:#ffffff;fill-opacity:1">
</g>
<g
   id="g950"
   style="fill:#ffffff;fill-opacity:1">
</g>
</svg>